<?xml version="1.0" encoding="UTF-8"?>
<svg xmlns="http://www.w3.org/2000/svg" xmlns:xlink="http://www.w3.org/1999/xlink" viewBox="0 0 109.17 36.81">
  <defs>
    <style>
      .cls-1 {
        fill: #2d9d76;
      }

      .cls-2 {
        fill: url(#linear-gradient);
      }

      .cls-3 {
        fill: #231f20;
      }

      .cls-4 {
        fill: #58595b;
      }
    </style>
    <linearGradient id="linear-gradient" x1="34.98" y1="7.2" x2="10.23" y2="21.43" gradientUnits="userSpaceOnUse">
      <stop offset="0" stop-color="#58595b"/>
      <stop offset=".47" stop-color="#555658"/>
      <stop offset=".8" stop-color="#4c4d4e"/>
      <stop offset="1" stop-color="#434445"/>
    </linearGradient>
  </defs>
  <g id="payments">
    <g id="payments-2" data-name="payments">
      <path class="cls-3" d="m43.97,26.59c.41-.22.89-.33,1.44-.33.64,0,1.22.16,1.74.49.52.33.93.79,1.23,1.39.3.6.45,1.31.45,2.11s-.15,1.5-.45,2.11c-.3.61-.71,1.08-1.23,1.41-.52.33-1.1.5-1.74.5-.54,0-1.02-.11-1.43-.33-.41-.22-.74-.51-.97-.86v3.75s-2.39,0-2.39,0v-10.44h2.39v1.1c.23-.36.55-.66.96-.88Zm1.95,2.25c-.33-.34-.74-.51-1.22-.51s-.88.17-1.21.52c-.33.34-.5.81-.5,1.41s.16,1.06.5,1.41c.33.34.73.52,1.21.52s.88-.17,1.21-.52c.33-.35.5-.82.5-1.42s-.17-1.06-.5-1.4Z"/>
      <path class="cls-3" d="m49.82,28.14c.3-.6.71-1.07,1.23-1.39.52-.33,1.1-.49,1.74-.49.55,0,1.03.11,1.44.33.41.22.73.52.96.88v-1.1s2.39,0,2.39,0v7.78h-2.39v-1.1c-.23.36-.56.66-.97.88-.41.22-.9.33-1.44.33-.63,0-1.21-.16-1.73-.5-.52-.33-.93-.8-1.23-1.41-.3-.61-.45-1.31-.45-2.11s.15-1.5.45-2.11Zm4.88.71c-.44-.46-1-.61-1.69-.46-.81.31-1.22.92-1.22,1.86,0,.6.16,1.07.5,1.42.33.35.73.52,1.21.52s.88-.17,1.21-.52c.33-.34.5-.81.5-1.41s-.17-1.06-.5-1.41Z"/>
      <path class="cls-3" d="m66.95,26.37l-4.41,10.44h-2.57l1.32-2.92-3.17-7.52h2.66l1.8,4.87,1.79-4.87h2.58Z"/>
      <path class="cls-3" d="m79.72,27.16c.57.59.86,1.4.86,2.44v4.55h-2.37v-4.23c0-.5-.13-.89-.4-1.16-.26-.27-.63-.41-1.09-.41s-.83.14-1.09.41c-.26.27-.4.66-.4,1.16v4.23h-2.37v-4.23c0-.5-.13-.89-.4-1.16-.26-.27-.63-.41-1.09-.41s-.83.14-1.09.41c-.26.27-.4.66-.4,1.16v4.23h-2.39v-7.78h2.39v.98c.24-.33.56-.58.95-.77.39-.19.83-.29,1.33-.29.59,0,1.11.13,1.57.38.46.25.82.61,1.08,1.07.27-.43.64-.78,1.1-1.05.46-.27.97-.4,1.52-.4.97,0,1.74.29,2.31.88Z"/>
      <path class="cls-3" d="m88.89,30.83h-5.4c.04.48.19.85.47,1.11.27.26.61.38,1.01.38.57,0,.97-.23,1.21-.69.02-.04.06-.07.11-.07.42,0,2.46,0,2.46,0-.13.51-.37.97-.7,1.38-.34.41-.76.73-1.28.96-.51.23-1.08.35-1.72.35-.76,0-1.44-.16-2.04-.49-.6-.33-1.06-.79-1.39-1.39-.33-.6-.5-1.31-.5-2.12s.16-1.52.5-2.12c.33-.6.79-1.07,1.39-1.39.59-.33,1.28-.49,2.05-.49s1.42.16,2.01.47c.59.32,1.04.77,1.37,1.35.33.59.5,1.27.5,2.05,0,.22-.01.46-.04.7Zm-2.4-1.33c0-.41-.14-.73-.42-.98-.28-.24-.63-.36-1.05-.36s-.74.12-1.01.35c-.27.23-.44.56-.51.99h2.98Z"/>
      <path class="cls-3" d="m96.39,27.17c.54.59.82,1.4.82,2.43v4.55h-2.37v-4.23c0-.52-.13-.93-.4-1.21-.27-.29-.63-.43-1.09-.43s-.82.14-1.09.43c-.27.29-.4.69-.4,1.21v4.23h-2.39v-7.78h2.39v1.03c.24-.34.57-.62.98-.82.41-.2.87-.3,1.38-.3.91,0,1.64.3,2.18.89Z"/>
      <path class="cls-3" d="m97.93,26.37v-1.9h2.39v1.9h1.58v1.98h-1.58v3.12c0,.23.06.4.17.5.11.1.3.15.56.15h.85v2.02h-1.21c-.86,0-1.54-.21-2.02-.63-.48-.42-.73-1.11-.73-2.07v-3.1"/>
      <path class="cls-3" d="m104.2,33.91c-.53-.23-.95-.55-1.26-.96s-.48-.86-.52-1.36h2.36c.03.27.15.49.38.66.22.17.5.25.82.25.3,0,.53-.06.69-.17.16-.12.24-.27.24-.45,0-.22-.12-.39-.35-.5-.23-.11-.61-.23-1.13-.36-.56-.13-1.02-.27-1.39-.41-.37-.14-.69-.37-.96-.68-.27-.31-.4-.73-.4-1.26,0-.45.12-.85.37-1.22.25-.37.61-.66,1.09-.87.48-.21,1.05-.32,1.71-.32.98,0,1.75.24,2.31.73.56.48.89,1.13.97,1.92h-2.2c-.04-.27-.16-.48-.36-.64-.2-.16-.46-.24-.79-.24-.28,0-.49.05-.64.16-.15.11-.22.25-.22.44,0,.22.12.39.36.5s.61.22,1.11.33c.58.15,1.05.3,1.41.44.36.14.68.38.96.7.27.32.42.75.43,1.29,0,.46-.13.86-.38,1.22-.26.36-.62.64-1.1.84-.48.2-1.03.31-1.67.31-.68,0-1.28-.12-1.81-.35Z"/>
    </g>
  </g>
  <g id="trust">
    <g id="rust">
      <path class="cls-3" d="m99.61,4.49V.12c0-.07.05-.12.11-.12h5.52c.07,0,.12.05.12.12v4.26c0,.07.06.12.12.12h3.56c.07,0,.12.06.12.12v4.02c0,.07-.05.12-.12.12h-3.56c-.07,0-.12.05-.12.12v7.42c0,.56.13.96.4,1.21.27.25.72.37,1.35.37h1.93c.07,0,.12.05.12.12v4.64c0,.07-.05.12-.12.12h-2.81c-2.09,0-3.71-.51-4.88-1.53-1.17-1.02-1.75-2.69-1.75-5V4.49Z"/>
      <path class="cls-3" d="m59.99,4.96c1-.54,2.6-.49,3.82-.48.07,0,.12.05.12.12v5.13c0,.07-.05.12-.12.12h-1.64c-1.44,0-2.51.31-3.23.93-.72.62-1.08,1.7-1.08,3.25v8.6c0,.07-.05.12-.12.12h-5.52c-.07,0-.12-.05-.12-.12V4.6c0-.07.05-.12.12-.12h5.52c.07,0,.12.05.12.12v2.1c0,.12.15.16.22.07.56-.82,1-1.31,1.91-1.8Z"/>
      <path class="cls-3" d="m83.11,4.6v18.03c0,.07-.05.12-.12.12h-5.52c-.07,0-.12-.05-.12-.12v-2.27c0-.12-.15-.16-.22-.07-.48.67-.91,1.19-1.77,1.69-.97.56-1.89.77-3.1.77-1.44,0-2.7-.32-3.8-.96-1.1-.64-1.95-1.57-2.56-2.78-.61-1.21-.91-2.64-.91-4.27V4.6c0-.07.05-.12.12-.12h5.48c.07,0,.12.05.12.12v9.36c0,1.26.32,2.23.98,2.93.65.7,1.18,1.04,2.28,1.04s1.75-.34,2.4-1.04c.65-.7.98-1.67.98-2.93V4.6c0-.07.05-.12.12-.12h5.52c.07,0,.12.05.12.12Z"/>
      <path class="cls-3" d="m87.94,21.95c-1.13-.53-2.02-1.26-2.67-2.18-.63-.89-.99-1.88-1.09-2.97,0-.07.05-.13.12-.13h4.78c.06,0,.11.05.12.11.08.57.34,1.03.79,1.39.47.38,1.06.57,1.75.57.63,0,1.12-.13,1.47-.4.35-.26.52-.61.52-1.03,0-.51-.25-.89-.74-1.13-.49-.24-1.3-.51-2.4-.81-1.19-.3-2.18-.61-2.97-.94-.79-.33-1.47-.85-2.05-1.56-.57-.71-.86-1.67-.86-2.88,0-1.02.26-1.95.79-2.78.52-.84,1.3-1.5,2.31-1.99,1.02-.49,2.23-.73,3.64-.73,2.08,0,3.71.55,4.91,1.65,1.17,1.08,1.85,2.5,2.05,4.26,0,.07-.05.13-.12.13h-4.45c-.06,0-.11-.04-.12-.1-.09-.57-.34-1.02-.74-1.36-.43-.36-.98-.54-1.68-.54-.59,0-1.05.12-1.37.37-.32.24-.47.58-.47,1,0,.51.25.89.76,1.15.5.25,1.29.51,2.36.76,1.23.34,2.23.67,3,1,.77.33,1.45.86,2.03,1.59.58.73.89,1.71.91,2.94,0,1.04-.27,1.97-.82,2.78-.54.82-1.33,1.46-2.34,1.93-1.02.47-2.2.7-3.55.7-1.44,0-2.73-.26-3.86-.8Z"/>
      <path class="cls-3" d="m40.63,4.49V.12c0-.07.05-.12.11-.12h5.52c.07,0,.12.05.12.12v4.26c0,.07.06.12.12.12l3.56-.02c.07,0,.12.05.12.12v4.04c0,.07-.05.12-.12.12h-3.56c-.07,0-.12.05-.12.12v7.42c0,.56.13.96.4,1.21.27.25.72.37,1.35.37h1.93c.07,0,.12.05.12.12v4.64c0,.07-.05.12-.12.12h-2.81c-2.09,0-3.71-.51-4.88-1.53-1.17-1.02-1.75-2.69-1.75-5V4.49Z"/>
    </g>
  </g>
  <g id="symbol">
    <g>
      <path class="cls-1" d="m5.71,19.11l-4.28-2.47c-1.9-1.1-1.9-3.85,0-4.94l12.84-7.41,4.28-2.47,2.14-1.23c1.33-.77,2.96-.77,4.29,0l2.14,1.23-4.28,2.47,4.28,2.47-4.28,2.47-4.28-2.47-12.84,7.41,4.28,2.47-4.28,2.47Z"/>
      <path class="cls-1" d="m22.83,14.16l8.56-4.94-4.28-2.47,4.28-2.47,4.29,2.48c1.9,1.09,1.9,3.83,0,4.93l-8.58,4.95-4.28-2.47Z"/>
      <path class="cls-2" d="m5.72,19.1l4.27-2.46s0,0,0,0l4.27,2.47s0,0,0,0l8.55-4.94s0,0,0,0l4.27,2.46s0,0,0,.01l-8.55,4.94c-2.65,1.53-5.91,1.53-8.55,0l-4.27-2.47s0,0,0-.01Z"/>
      <polygon class="cls-4" points="31.39 4.28 27.11 1.81 22.83 4.28 27.11 6.75 31.39 4.28"/>
    </g>
  </g>
</svg>